<?xml version="1.0" standalone="no"?>
<!DOCTYPE svg PUBLIC "-//W3C//DTD SVG 20010904//EN"
 "http://www.w3.org/TR/2001/REC-SVG-20010904/DTD/svg10.dtd">
<svg version="1.0" xmlns="http://www.w3.org/2000/svg"
 width="310.000000pt" height="322.000000pt" viewBox="0 0 310.000000 322.000000"
 preserveAspectRatio="xMidYMid meet">

<g transform="translate(0.000000,322.000000) scale(0.100000,-0.100000)"
fill="#000000" stroke="none">
<path d="M1310 3175 c-327 -56 -605 -198 -836 -429 -215 -216 -347 -459 -416
-768 -20 -89 -23 -130 -23 -303 1 -183 3 -210 29 -319 33 -141 69 -242 127
-357 34 -69 99 -181 115 -198 5 -5 143 -30 172 -30 21 -1 22 3 22 67 0 37 4
73 9 81 10 16 41 -7 200 -157 l85 -78 -22 -31 c-12 -17 -22 -36 -22 -41 0 -15
219 -142 244 -142 3 0 2 16 -1 35 -5 30 -3 34 11 29 21 -8 21 5 -1 22 -22 17
-1 19 28 3 17 -9 18 -13 8 -25 -10 -13 -10 -17 2 -25 19 -12 39 -11 39 2 0 5
-4 7 -10 4 -5 -3 -10 1 -10 9 0 21 29 21 37 1 3 -9 -3 -25 -12 -35 -16 -18
-16 -20 -2 -20 18 0 37 29 30 47 -3 10 6 9 37 -2 38 -13 42 -13 61 6 14 14 16
21 7 23 -115 34 -259 99 -351 160 -416 276 -619 791 -502 1272 131 542 605
915 1160 915 689 0 1233 -577 1191 -1263 -32 -517 -391 -952 -896 -1085 -153
-41 -440 -44 -565 -6 -16 5 -13 -1 12 -27 24 -24 43 -34 76 -37 l45 -5 -4 -37
-4 -36 13 35 c12 31 18 35 55 38 26 2 42 -1 42 -7 0 -6 -9 -11 -20 -11 -11 0
-20 -4 -20 -10 0 -5 9 -10 20 -10 11 0 20 -4 20 -10 0 -5 -9 -9 -19 -7 -26 3
-27 -17 -1 -21 22 -4 28 -22 8 -22 -41 1 -58 13 -59 44 l-1 31 -10 -32 c-13
-41 -48 -47 -48 -8 0 16 -6 25 -15 25 -12 0 -14 -7 -9 -27 5 -19 3 -25 -4 -18
-6 6 -12 19 -14 30 -2 15 4 21 27 26 30 6 25 12 -22 22 -23 5 -33 -9 -33 -43
0 -10 -5 -22 -12 -26 -8 -5 -9 4 -4 34 5 35 3 42 -10 42 -12 0 -15 -6 -10 -26
5 -19 3 -25 -6 -22 -7 3 -14 17 -16 31 -5 38 -16 33 -28 -12 l-11 -38 48 -11
c158 -37 384 -39 544 -7 109 22 268 76 356 121 90 45 199 113 199 124 0 4 -11
15 -25 24 -14 9 -25 22 -25 29 0 11 219 199 257 220 22 13 27 2 31 -74 3 -43
9 -69 16 -69 6 1 51 9 100 19 100 21 97 18 171 143 92 154 160 348 190 543 23
144 16 387 -15 520 -69 305 -202 548 -414 761 -237 236 -529 383 -863 433 -95
15 -359 12 -453 -4z m446 -69 c27 -27 47 -36 108 -48 72 -14 76 -14 81 3 8 24
37 24 57 2 18 -21 32 -73 19 -73 -4 0 -14 -20 -21 -45 -7 -25 -17 -45 -23 -45
-9 0 -7 21 8 75 7 28 -4 41 -42 50 -36 7 -47 -9 -12 -18 28 -7 23 -60 -6 -65
-16 -3 -18 -1 -7 9 6 7 12 19 12 26 0 18 -20 16 -25 -2 -3 -8 -7 -22 -10 -31
-4 -13 -10 -11 -35 13 -17 15 -30 33 -30 40 0 16 37 36 44 24 3 -5 -1 -11 -9
-15 -19 -7 -19 -26 0 -26 13 0 33 46 24 55 -2 2 -20 5 -39 7 -34 3 -35 2 -43
-44 -9 -48 -27 -66 -27 -27 0 15 -4 19 -15 15 -8 -3 -22 -9 -30 -12 -8 -3 -15
-1 -15 4 0 6 9 14 21 17 26 8 19 30 -10 29 -25 -1 -28 11 -5 20 18 7 50 -8 57
-26 3 -7 6 -1 6 13 1 24 -3 27 -46 32 -27 3 -50 4 -52 2 -2 -2 -6 -24 -8 -50
-7 -62 -26 -58 -21 5 4 67 -18 67 -27 0 -9 -66 -29 -66 -23 0 3 34 1 51 -8 54
-19 7 -24 -4 -24 -56 0 -26 -4 -48 -10 -48 -5 0 -10 7 -10 15 0 8 -6 12 -13 9
-8 -3 -25 4 -38 16 -22 18 -23 21 -6 30 26 16 21 30 -12 30 -28 0 -28 -1 -23
-50 3 -33 1 -50 -7 -50 -6 0 -11 11 -11 25 0 28 -17 33 -34 10 -10 -12 -14
-12 -31 2 -14 10 -16 17 -7 20 6 3 12 12 12 20 0 9 -6 13 -15 9 -9 -3 -15 0
-15 10 0 25 44 13 48 -13 4 -28 32 -31 32 -3 0 11 -5 20 -11 20 -5 0 -7 5 -4
10 4 6 55 10 119 10 111 0 113 0 124 25 16 35 47 32 88 -9z m-355 4 c29 -23 8
-27 -26 -4 -21 14 -28 14 -41 3 -13 -11 -13 -15 -2 -23 15 -12 22 -126 8 -126
-5 0 -12 17 -15 38 -9 55 -14 64 -26 56 -10 -6 -6 -54 8 -90 3 -8 0 -14 -6
-14 -7 0 -15 10 -20 22 l-8 23 -7 -22 c-4 -12 -14 -24 -23 -27 -17 -7 -63 18
-63 34 0 15 11 12 32 -7 14 -13 21 -14 31 -4 9 9 7 13 -11 18 -17 4 -21 10
-16 25 5 17 3 19 -16 13 -16 -5 -21 -3 -18 6 6 19 58 24 59 7 1 -7 1 -16 0
-20 0 -5 6 -8 14 -8 17 0 20 25 5 35 -15 9 -2 25 21 25 12 0 19 7 19 18 0 43
60 57 101 22z m239 10 c0 -5 -4 -10 -10 -10 -5 0 -10 5 -10 10 0 6 5 10 10 10
6 0 10 -4 10 -10z m-554 -82 c16 -13 30 -32 31 -43 1 -11 4 -38 8 -60 6 -37 5
-39 -9 -21 -9 11 -16 28 -16 37 0 10 -7 24 -15 33 -14 14 -19 14 -50 -1 -39
-18 -38 -27 3 -28 21 0 28 -6 30 -24 2 -13 -1 -28 -7 -34 -8 -8 -11 -3 -11 16
0 18 -5 27 -16 27 -16 0 -16 -12 1 -52 5 -14 1 -16 -31 -13 -20 2 -41 8 -46
13 -13 13 -6 44 11 50 9 3 11 -1 7 -16 -7 -22 8 -39 19 -22 10 17 -5 50 -24
50 -9 0 -26 -6 -36 -14 -19 -14 -19 -15 -2 -50 9 -20 17 -41 17 -46 0 -18 -19
-10 -25 11 -7 21 -42 22 -38 1 2 -7 -6 -12 -17 -12 -27 0 -25 16 5 36 25 16
33 34 16 34 -6 0 -26 -10 -46 -21 l-36 -21 26 -43 c28 -48 30 -55 15 -55 -5 0
-20 18 -32 40 -13 22 -27 40 -31 40 -20 0 -17 -34 7 -64 15 -20 22 -37 16 -41
-5 -3 -21 12 -36 34 -23 35 -29 39 -46 30 -15 -8 -17 -14 -8 -24 8 -10 6 -17
-11 -29 -19 -13 -20 -18 -9 -31 17 -21 41 -19 47 5 3 11 9 20 14 20 5 0 9 -9
9 -20 0 -11 7 -20 15 -20 8 0 15 -5 15 -11 0 -7 -10 -9 -25 -5 -20 5 -25 3
-25 -14 0 -11 -4 -20 -10 -20 -5 0 -10 6 -10 13 0 18 -50 41 -62 29 -5 -5 -2
-14 7 -22 19 -16 20 -34 0 -27 -8 4 -17 2 -20 -3 -9 -15 -41 -12 -55 6 -11 12
-10 18 3 32 16 15 17 15 17 -6 0 -13 6 -22 15 -22 21 0 19 14 -5 35 -20 18
-21 18 -47 -8 l-27 -27 34 -35 c38 -39 34 -61 -5 -25 l-25 23 0 -22 c0 -15 -5
-21 -17 -19 -11 2 -18 -3 -18 -12 0 -9 9 -15 23 -14 12 0 22 -5 22 -13 0 -16
-42 -17 -58 -1 -18 18 -14 49 7 55 11 3 22 12 26 20 12 33 -7 25 -53 -20 -35
-36 -44 -49 -35 -58 8 -8 9 -18 2 -31 -12 -23 -1 -24 17 0 13 16 15 16 32 -4
10 -11 24 -23 32 -26 10 -3 2 -11 -23 -23 -40 -19 -64 -12 -34 9 9 7 17 19 17
26 0 9 -6 8 -19 -4 -11 -10 -28 -16 -38 -14 -19 4 -20 9 -7 43 6 16 3 15 -13
-5 -12 -14 -24 -22 -27 -19 -7 7 29 57 83 114 23 24 41 46 41 49 0 3 -11 6
-25 6 -14 0 -25 5 -25 10 0 7 13 8 34 5 31 -6 39 -2 92 49 33 31 87 75 122 98
48 32 60 44 51 54 -16 19 -1 53 27 60 13 3 39 3 58 0 27 -5 49 0 100 26 59 29
65 34 59 56 -3 15 -1 27 8 33 21 13 33 11 65 -13z m1043 -77 c9 -6 11 -18 7
-35 -5 -19 -3 -26 9 -26 15 0 19 11 16 38 -3 17 34 -2 167 -86 99 -64 118 -82
87 -82 -8 0 -15 -3 -15 -7 -1 -13 -51 -66 -56 -60 -3 3 -1 14 5 25 7 13 7 22
-1 30 -18 18 -28 14 -28 -8 0 -11 -4 -20 -10 -20 -5 0 -10 20 -10 45 0 44 15
62 23 28 4 -17 4 -17 12 0 7 18 -17 46 -40 47 -14 0 -55 -74 -55 -99 0 -12 -7
-21 -16 -21 -25 0 -54 20 -54 37 0 14 2 14 20 -2 11 -10 23 -15 28 -10 4 4 1
10 -5 12 -17 6 -17 23 0 23 7 0 18 10 26 21 10 18 11 23 0 30 -7 4 -19 3 -25
-2 -8 -6 -14 -4 -18 7 -10 27 4 35 35 18 57 -29 51 1 -6 35 l-35 21 -22 -45
c-24 -49 -42 -60 -32 -19 6 24 5 25 -15 12 -28 -17 -55 -1 -59 37 -2 17 0 25
7 20 6 -3 11 -15 11 -26 0 -10 7 -19 15 -19 18 0 19 12 3 28 -9 9 -7 13 5 18
21 8 22 24 2 24 -8 0 -15 5 -15 10 0 12 20 13 39 1z m-1379 -84 c0 -7 -5 -18
-12 -25 -15 -15 -58 -16 -58 -2 0 6 11 10 25 10 16 0 25 6 25 15 0 8 5 15 10
15 6 0 10 -6 10 -13z m1690 -63 c0 -8 -4 -12 -10 -9 -5 3 -10 10 -10 16 0 5 5
9 10 9 6 0 10 -7 10 -16z m20 -59 c10 -12 10 -19 2 -27 -9 -9 -12 -7 -12 7 0
14 -3 16 -12 7 -8 -8 -8 -15 2 -27 12 -15 11 -16 -5 -13 -26 5 -30 -18 -3 -25
27 -7 59 18 51 40 -11 29 14 9 86 -68 70 -76 84 -96 57 -86 -7 3 -28 -10 -46
-28 -18 -19 -37 -32 -42 -29 -5 4 0 16 11 28 21 22 14 55 -8 42 -7 -5 -11 1
-11 13 0 26 12 27 35 1 13 -14 22 -17 29 -10 7 7 0 20 -22 42 l-32 32 -35 -34
c-45 -43 -59 -31 -16 14 49 51 29 68 -22 19 -32 -31 -39 -34 -35 -17 4 16 -1
25 -18 33 -23 10 -34 51 -14 51 6 0 10 6 10 13 0 14 19 37 31 37 4 0 12 -7 19
-15z m239 -264 c22 -30 91 -150 91 -157 0 -2 -10 -4 -21 -4 -17 0 -20 -4 -15
-22 3 -13 6 -26 6 -30 0 -13 40 -9 40 3 0 6 -7 9 -15 5 -9 -3 -15 0 -15 9 0
20 36 19 44 -1 10 -26 -14 -47 -46 -40 -25 5 -27 4 -19 -13 16 -29 39 -33 61
-11 20 20 20 20 35 -16 8 -20 15 -40 15 -44 0 -4 7 -21 16 -38 8 -17 18 -46
20 -64 5 -29 3 -33 -18 -34 -12 -1 -38 -5 -55 -9 -22 -5 -33 -4 -33 4 0 6 11
13 25 17 28 7 27 6 19 28 -3 9 -11 13 -16 10 -6 -4 -8 2 -6 11 5 30 25 28 36
-5 6 -16 16 -30 23 -30 7 0 8 7 4 18 -3 9 -9 29 -12 45 -8 37 -16 40 -59 22
-42 -17 -54 -19 -54 -6 0 4 20 16 44 25 30 12 43 22 40 31 -5 11 -14 10 -51
-6 -47 -20 -71 -17 -40 6 16 11 16 13 1 26 -12 10 -15 24 -10 55 4 32 2 44 -9
48 -9 3 -15 0 -15 -9 0 -15 -18 -30 -26 -22 -6 6 28 77 37 77 4 0 9 -7 11 -15
2 -9 8 -12 17 -6 11 7 10 13 -4 34 l-17 26 -39 -26 c-22 -14 -43 -23 -47 -18
-4 4 3 14 14 22 14 9 20 21 17 34 -6 22 -33 26 -33 5 0 -17 -16 -30 -23 -19
-7 11 23 83 34 83 5 0 9 -8 9 -17 0 -12 3 -14 11 -6 8 8 8 17 0 32 -17 32 4
26 28 -8z m75 -52 c-3 -5 -10 -7 -15 -3 -5 3 -7 10 -3 15 3 5 10 7 15 3 5 -3
7 -10 3 -15z m-2394 -3 c0 -8 16 -24 35 -36 33 -20 49 -46 23 -38 -7 3 -21 -6
-33 -19 -13 -16 -26 -22 -37 -18 -10 4 -16 11 -13 15 9 15 -15 22 -30 10 -19
-16 -12 -26 36 -51 22 -11 37 -24 33 -30 -3 -6 -23 0 -49 15 -23 14 -45 22
-49 18 -4 -3 -11 0 -16 7 -10 17 -43 6 -38 -11 3 -7 15 -15 29 -19 13 -4 20
-7 15 -8 -5 -1 -3 -7 3 -15 7 -8 9 -25 5 -40 -5 -20 -2 -26 10 -26 10 0 16 9
16 25 0 29 0 29 36 10 20 -10 23 -15 12 -15 -13 0 -18 -8 -18 -30 0 -16 -4
-30 -10 -30 -5 0 -10 6 -10 14 0 9 -7 12 -20 9 -27 -7 -34 -21 -20 -38 7 -8
10 -15 7 -15 -3 0 -13 -3 -22 -6 -15 -6 -16 -1 -10 42 4 27 9 58 12 69 4 14 2
17 -5 10 -11 -11 -62 -161 -62 -182 0 -7 5 -13 10 -13 6 0 10 9 10 19 0 10 7
22 16 25 19 7 57 -22 48 -36 -3 -5 -14 -2 -23 6 -10 9 -21 13 -24 9 -13 -12
-7 -21 23 -32 31 -10 41 -31 15 -31 -8 0 -15 -6 -15 -14 0 -8 -7 -17 -16 -20
-19 -7 -44 10 -44 30 0 12 4 12 20 2 10 -7 23 -9 27 -5 4 5 1 12 -7 17 -28 18
-48 10 -59 -20 -15 -43 -24 -37 -16 11 l7 41 -25 -17 c-15 -10 -28 -12 -31 -6
-4 5 8 15 27 21 29 11 36 21 63 99 17 47 35 93 38 103 5 11 1 18 -13 23 -46
14 -16 75 38 75 13 0 29 17 51 55 31 54 50 69 50 41z m2440 -466 c0 -5 -9 -10
-20 -10 -11 0 -20 5 -20 10 0 6 9 10 20 10 11 0 20 -4 20 -10z m-2594 -57
c-11 -11 -19 6 -11 24 8 17 8 17 12 0 3 -10 2 -21 -1 -24z m-46 -13 c0 -5 7
-10 15 -10 7 0 18 -7 23 -16 6 -11 11 -13 16 -5 8 13 36 15 36 3 0 -7 -63 -42
-76 -42 -3 0 -2 9 1 20 5 14 2 20 -9 20 -10 0 -16 -9 -16 -25 0 -14 -1 -28 -2
-32 -2 -5 17 -10 41 -13 25 -3 46 -11 49 -18 3 -10 -7 -11 -47 -6 -47 6 -51 5
-51 -15 0 -19 6 -21 50 -21 51 0 72 -19 23 -21 -26 0 -26 -1 -7 -9 12 -4 24
-15 27 -24 7 -18 -30 -69 -45 -60 -5 4 -1 16 12 29 15 16 18 25 10 30 -6 4
-17 -1 -24 -11 -9 -12 -15 -14 -20 -5 -11 18 -25 3 -19 -22 4 -21 4 -22 -11
-3 -9 11 -16 23 -16 27 0 11 27 30 40 27 7 -2 15 3 18 11 4 11 -2 13 -27 8
l-33 -7 7 63 c10 102 16 137 26 137 5 0 9 -4 9 -10z m2801 -11 c14 -23 10 -45
-12 -74 -19 -23 -22 -41 -24 -143 -1 -65 -6 -136 -10 -160 -6 -35 -5 -41 7
-37 20 8 41 -19 34 -43 -4 -10 -22 -26 -42 -35 -31 -15 -37 -16 -50 -2 -9 8
-25 15 -37 15 -25 0 -54 16 -46 25 4 3 26 1 50 -4 48 -11 54 -9 46 14 -4 8
-17 15 -31 15 -31 0 -56 10 -56 22 0 5 13 7 30 3 26 -6 30 -4 30 14 0 12 -5
21 -11 21 -8 0 -8 5 1 15 20 24 30 18 30 -19 0 -53 18 -52 26 0 8 54 -1 64
-58 64 -21 0 -38 5 -38 10 0 6 25 10 55 10 56 0 73 13 33 24 -13 3 -35 6 -50
6 -16 0 -28 5 -28 10 0 6 14 10 31 10 28 0 30 2 18 17 -11 13 -11 17 -1 20 12
5 17 33 5 33 -3 0 -15 -7 -25 -17 -25 -22 -36 -8 -13 17 28 30 60 22 62 -15 0
-16 2 -36 2 -42 1 -7 6 -13 11 -13 6 0 10 27 10 61 l0 62 -50 -6 c-50 -6 -77
6 -41 18 11 3 21 16 23 28 2 13 12 23 27 27 14 3 27 12 29 19 4 11 -6 13 -47
9 -35 -4 -51 -2 -48 6 2 6 19 12 38 14 19 2 38 7 43 12 13 13 67 5 77 -11z
m-2778 -314 c3 -15 5 -13 6 7 1 25 4 27 41 25 22 -1 40 -2 40 -3 0 0 -7 -15
-16 -32 -19 -38 -39 -43 -30 -7 4 14 2 25 -3 25 -5 0 -12 -11 -15 -25 -4 -14
-11 -25 -16 -25 -6 0 -13 0 -17 -1 -5 0 -11 10 -15 23 -5 19 -6 16 -7 -13 -1
-20 1 -38 4 -41 3 -3 25 -2 48 3 23 4 46 4 51 -1 8 -8 -5 -14 -61 -25 -18 -4
-33 -11 -33 -16 0 -5 -4 -9 -9 -9 -5 0 -12 27 -16 59 -6 56 -8 59 -32 58 -14
-1 -28 4 -30 11 -4 9 2 11 21 6 18 -4 28 -2 32 9 7 20 52 -1 57 -28z m77 -125
c0 -5 -9 -10 -20 -10 -27 0 -25 -18 3 -22 27 -4 34 -35 13 -63 -18 -26 -32
-14 -15 14 16 25 2 42 -16 18 -7 -10 -19 -15 -29 -11 -19 7 -21 -7 -4 -24 9
-9 8 -12 -4 -12 -18 0 -33 33 -23 50 3 5 15 10 26 10 21 0 26 15 7 26 -6 4
-16 0 -23 -9 -17 -23 -22 -21 -27 7 -5 22 -1 25 31 29 70 7 81 7 81 -3z m2521
-86 c12 -14 11 -16 -5 -13 -11 2 -21 10 -24 17 -5 17 13 15 29 -4z m-2481 -39
c0 -3 -11 -10 -24 -15 -14 -5 -23 -16 -22 -24 4 -26 16 -30 30 -10 8 10 18 16
22 12 4 -4 -6 -24 -22 -45 -22 -30 -29 -34 -32 -20 -2 9 -10 17 -18 17 -11 0
-13 -7 -8 -27 11 -45 -11 -14 -30 41 -21 64 -21 63 15 64 17 0 34 3 37 6 7 7
52 8 52 1z m2504 -70 c3 -8 10 -15 17 -15 6 0 8 7 5 16 -4 10 -1 14 6 12 7 -3
13 -13 13 -24 0 -14 -7 -19 -29 -19 -16 -1 -31 -6 -34 -13 -4 -12 9 -16 36
-13 6 1 12 -1 12 -6 0 -15 -103 -218 -127 -249 l-24 -32 -22 21 c-12 12 -33
29 -47 38 -14 9 -22 20 -18 24 3 3 18 -1 33 -11 24 -15 28 -16 42 -2 21 21 7
41 -23 34 -29 -8 -32 10 -4 19 27 9 60 -3 60 -21 0 -8 -8 -26 -17 -41 -14 -21
-14 -25 -3 -21 8 2 25 22 37 43 l22 39 -25 23 c-14 13 -32 22 -39 21 -8 -2
-14 2 -15 7 -1 12 79 30 88 20 4 -4 -1 -11 -11 -16 -9 -6 -15 -14 -12 -20 11
-16 24 -10 40 21 l15 29 -46 20 c-25 11 -43 25 -39 31 4 6 21 2 47 -11 27 -14
44 -17 50 -11 15 15 3 27 -41 42 -44 14 -55 33 -18 30 35 -3 40 -1 28 14 -10
11 -8 17 6 25 24 14 30 14 37 -4z m-2440 -44 c3 -5 0 -11 -8 -14 -7 -3 -16
-19 -19 -36 -4 -20 -16 -35 -32 -43 -14 -6 -25 -15 -25 -19 0 -19 22 -18 59 1
55 28 61 9 6 -21 -30 -17 -41 -28 -36 -38 6 -10 15 -8 42 8 44 27 73 28 41 1
-13 -11 -21 -24 -18 -29 4 -5 2 -12 -4 -16 -5 -3 -10 -1 -10 4 0 6 -7 11 -16
11 -10 0 -14 -7 -12 -17 2 -10 11 -16 19 -14 8 2 22 4 32 5 9 0 20 8 23 18 3
10 10 18 15 18 12 0 12 -5 -5 -45 -14 -33 -36 -48 -36 -25 0 6 -5 10 -11 10
-7 0 -8 -12 -4 -32 l6 -33 -28 42 c-24 36 -31 41 -55 36 -35 -7 -46 16 -29 62
10 29 9 39 -11 79 -12 25 -20 47 -17 50 2 2 19 7 37 11 35 7 46 -9 12 -20 -21
-7 -28 -35 -9 -35 16 0 49 20 49 30 0 5 4 20 10 34 10 26 24 33 34 17z m1845
-585 c17 -20 2 -48 -23 -44 -24 3 -34 37 -14 49 18 12 24 11 37 -5z m-1322
-40 c-8 -21 -43 -20 -51 1 -10 26 23 48 42 29 8 -8 12 -22 9 -30z m1173 -8 c0
-6 8 -20 17 -30 15 -17 15 -20 1 -35 -11 -10 -23 -13 -35 -8 -16 8 -16 9 5 12
25 5 30 23 6 23 -11 0 -14 5 -10 16 4 12 1 14 -14 9 -19 -6 -27 5 -13 18 11
12 43 8 43 -5z m-77 -35 c-10 -8 -13 -12 -6 -9 20 10 43 -5 43 -29 0 -25 -28
-41 -44 -25 -7 7 -5 10 7 10 9 0 17 7 17 16 0 10 -6 13 -19 9 -26 -8 -38 25
-15 42 24 17 39 5 17 -14z m-39 -22 c24 -27 17 -65 -13 -69 -15 -2 -21 0 -16
7 3 6 11 9 16 6 5 -4 9 -1 9 4 0 6 -9 11 -20 11 -25 0 -36 25 -20 45 16 20 23
19 44 -4z m-66 -40 c14 -46 15 -51 3 -51 -5 0 -12 14 -16 30 -4 17 -11 28 -16
24 -11 -6 -11 -2 -3 20 10 26 20 19 32 -23z m-166 -25 c14 -32 5 -54 -28 -67
-32 -12 -44 0 -44 44 0 42 -24 28 -28 -16 -4 -43 -22 -40 -22 4 0 19 -5 29
-15 29 -8 0 -15 4 -15 9 0 6 21 12 48 14 26 2 57 4 70 5 15 1 26 -6 34 -22z
m-164 -5 c3 -9 -2 -11 -17 -6 -12 4 -21 2 -21 -4 0 -6 9 -11 20 -11 11 0 23
-7 27 -16 8 -23 -20 -47 -46 -39 -30 9 -26 27 4 19 14 -3 25 -2 25 4 0 5 -11
13 -25 16 -24 6 -34 34 -18 50 11 11 46 2 51 -13z m247 -11 c-3 -5 -13 -10
-21 -10 -8 0 -12 5 -9 10 3 6 13 10 21 10 8 0 12 -4 9 -10z"/>
<path d="M1687 3106 c-7 -16 13 -26 51 -26 l27 1 -24 19 c-27 24 -47 25 -54 6z"/>
<path d="M1533 3043 c-14 -30 -11 -38 12 -30 15 6 22 57 8 57 -5 0 -14 -12
-20 -27z"/>
<path d="M1960 3051 c0 -12 29 -35 36 -28 11 10 -5 37 -21 37 -8 0 -15 -4 -15
-9z"/>
<path d="M1030 3026 c0 -19 14 -28 34 -20 13 5 14 9 5 20 -15 18 -39 18 -39 0z"/>
<path d="M785 2910 c-7 -11 2 -30 13 -30 4 0 18 9 32 20 l25 20 -32 0 c-17 0
-35 -4 -38 -10z"/>
<path d="M653 2756 c-20 -18 -25 -28 -17 -36 8 -8 18 -1 38 25 31 40 20 46
-21 11z"/>
<path d="M2354 2789 c-3 -6 0 -15 7 -20 13 -7 28 5 29 24 0 11 -28 8 -36 -4z"/>
<path d="M2685 2450 c-7 -12 2 -30 16 -30 12 0 12 27 0 35 -5 3 -12 1 -16 -5z"/>
<path d="M350 2395 c0 -8 4 -15 9 -15 5 0 13 -9 16 -20 7 -23 25 -18 25 7 0
15 -27 42 -42 43 -5 0 -8 -7 -8 -15z"/>
<path d="M2938 1850 c5 -33 16 -39 26 -14 11 28 6 44 -12 44 -15 0 -18 -6 -14
-30z"/>
<path d="M2880 1805 c0 -8 9 -15 20 -15 11 0 20 7 20 15 0 8 -9 15 -20 15 -11
0 -20 -7 -20 -15z"/>
<path d="M2920 1434 c0 -9 7 -14 17 -12 25 5 28 28 4 28 -12 0 -21 -6 -21 -16z"/>
<path d="M233 1292 c-8 -5 -9 -13 -3 -22 7 -12 12 -12 22 -2 14 14 -1 35 -19
24z"/>
<path d="M292 1033 c-9 -16 -9 -24 -1 -29 16 -10 28 8 19 31 -7 19 -7 19 -18
-2z"/>
<path d="M1680 436 c0 -29 10 -38 29 -27 18 11 10 45 -12 49 -12 3 -17 -3 -17
-22z"/>
<path d="M1370 2864 c-379 -69 -659 -253 -845 -554 -284 -462 -207 -1066 186
-1450 136 -133 335 -245 524 -295 132 -36 346 -45 480 -22 401 71 733 333 890
706 132 311 120 661 -30 966 -154 311 -426 532 -765 622 -78 21 -123 26 -255
28 -88 2 -171 1 -185 -1z m95 -120 c7 -50 -8 -83 -25 -54 -5 8 -16 24 -25 35
-16 19 -16 19 -12 -12 2 -23 -1 -33 -10 -33 -9 0 -13 15 -13 50 0 57 16 66 42
23 l17 -28 1 33 c0 48 17 39 25 -14z m105 36 c0 -5 -11 -10 -25 -10 -14 0 -25
-4 -25 -10 0 -5 11 -10 25 -10 14 0 25 -4 25 -10 0 -5 -11 -10 -25 -10 -31 0
-33 -17 -3 -22 12 -2 24 -9 26 -17 3 -10 0 -12 -12 -8 -10 4 -29 7 -42 7 -22
0 -24 4 -24 50 l0 50 40 0 c22 0 40 -4 40 -10z m84 1 c14 -5 16 -10 8 -15 -7
-4 -16 -4 -22 -1 -5 3 -16 3 -22 -1 -9 -6 -5 -10 11 -14 14 -3 27 -12 29 -19
3 -10 -2 -12 -22 -7 -19 5 -26 3 -26 -9 0 -9 9 -15 24 -15 14 0 28 -4 31 -10
4 -6 -10 -10 -34 -10 l-41 0 0 55 c0 51 2 55 23 54 12 0 31 -4 41 -8z m-298
-64 c4 -29 3 -47 -3 -47 -11 0 -23 46 -23 88 0 42 19 12 26 -41z m422 39 c13
-13 7 -46 -9 -46 -5 0 -7 -11 -3 -25 8 -33 -9 -32 -24 1 -12 25 -32 25 -32 -2
0 -8 -5 -14 -11 -14 -11 0 -4 83 8 103 6 9 54 -2 71 -17z m-481 -13 c3 -8 -6
-11 -24 -10 -25 2 -28 -1 -28 -28 0 -23 5 -30 19 -30 11 0 21 6 24 14 3 9 0
11 -8 6 -8 -5 -11 -3 -8 6 8 23 43 17 46 -8 4 -27 -30 -47 -64 -39 -58 15 -45
111 13 104 15 -2 28 -8 30 -15z m532 -15 c0 -13 -6 -39 -13 -57 -17 -49 -29
-23 -15 33 12 48 30 62 28 24z m-634 -44 c9 -25 14 -48 11 -52 -4 -3 -20 2
-37 12 l-30 18 7 -26 c4 -15 2 -26 -4 -26 -13 0 -47 88 -38 97 3 4 20 -4 37
-16 l31 -23 -7 31 c-10 47 10 37 30 -15z m695 16 c0 -34 15 -40 25 -10 3 11
11 20 16 20 12 0 12 2 -7 -54 -18 -53 -34 -55 -47 -5 l-10 34 -9 -27 c-5 -16
-14 -28 -19 -28 -13 0 -11 14 7 60 19 48 44 54 44 10z m-824 -35 c-11 -8 -24
-15 -30 -15 -6 0 -6 -4 1 -11 8 -8 17 -8 32 0 13 7 21 8 21 2 0 -6 -9 -15 -21
-22 -14 -7 -18 -14 -11 -21 7 -7 17 -6 30 1 25 13 32 14 32 3 0 -5 -16 -16
-35 -25 l-35 -17 -20 40 c-25 49 -25 55 3 68 34 17 56 15 33 -3z m955 5 c10
-6 19 -17 19 -25 0 -20 -10 -19 -25 2 -14 18 -42 12 -51 -12 -7 -16 12 -45 28
-45 5 0 6 9 3 21 -6 18 -5 20 14 10 23 -13 23 -13 15 -35 -8 -21 -48 -21 -68
0 -21 20 -20 53 1 76 18 20 36 23 64 8z m153 -104 c9 -14 6 -21 -11 -36 -13
-10 -23 -28 -23 -40 0 -12 -4 -18 -10 -15 -5 3 -10 19 -10 36 0 33 -6 36 -31
13 -31 -28 -30 2 2 46 28 39 32 41 52 27 11 -7 26 -21 31 -31z m-1224 24 c0
-5 -9 -10 -20 -10 -11 0 -20 -5 -20 -11 0 -7 10 -9 26 -5 28 7 54 -7 54 -30 0
-19 -44 -46 -64 -38 -24 9 -20 24 7 24 26 0 39 9 31 21 -2 5 -15 4 -28 -1 -35
-13 -63 9 -47 38 12 22 61 32 61 12z m820 -20 c316 -90 556 -333 642 -648 31
-111 30 -334 -1 -447 -78 -289 -292 -524 -567 -624 -119 -43 -202 -54 -355
-49 -115 5 -148 10 -229 37 -295 96 -516 326 -602 626 -20 69 -23 102 -23 235
1 168 11 225 65 352 115 271 360 469 660 533 96 21 313 13 410 -15z m-900 -40
c0 -5 -9 -10 -20 -10 -25 0 -36 -25 -20 -45 18 -22 50 -19 50 5 0 11 5 20 10
20 19 0 10 -49 -11 -60 -16 -9 -26 -8 -45 5 -32 21 -39 40 -26 71 8 16 20 24
37 24 14 0 25 -4 25 -10z m1377 -14 c15 -13 25 -28 21 -32 -5 -4 -17 1 -28 11
-11 10 -23 15 -27 12 -3 -4 2 -16 12 -27 23 -25 12 -39 -13 -17 -22 20 -32 21
-32 4 0 -7 9 -18 20 -25 12 -7 18 -17 15 -23 -7 -10 -63 29 -64 45 -1 10 51
74 61 75 4 1 20 -10 35 -23z m-1450 -68 c18 -18 33 -39 33 -47 0 -9 -15 0 -40
24 -38 37 -49 55 -33 55 4 0 22 -14 40 -32z m1530 -15 c10 -15 11 -23 3 -28
-7 -4 -14 2 -17 14 -3 12 -9 21 -14 21 -12 0 -11 -17 1 -40 15 -27 -14 -54
-41 -39 -24 12 -32 31 -26 56 3 15 6 13 15 -9 6 -16 16 -28 22 -28 13 0 13 6
-1 31 -25 47 28 67 58 22z m-1561 -19 c47 -36 46 -59 -2 -51 -36 6 -36 6 -19
-14 29 -31 9 -34 -30 -5 -48 37 -47 59 3 50 36 -7 37 -6 20 13 -36 40 -20 44
28 7z m1632 -53 c12 -17 18 -33 13 -36 -5 -3 -17 5 -25 17 -19 27 -35 15 -17
-13 18 -29 4 -38 -15 -10 -12 16 -19 20 -27 12 -7 -7 -5 -17 8 -31 10 -11 15
-23 11 -28 -8 -7 -56 42 -56 56 1 8 70 62 80 62 3 0 16 -13 28 -29z m-1682
-46 c33 -50 -20 -104 -71 -71 -44 29 -27 96 25 96 20 0 35 -8 46 -25z m1738
-43 c7 -11 -52 -92 -66 -92 -6 0 -8 7 -4 15 8 23 -4 45 -25 45 -31 0 -22 19
14 29 42 12 75 13 81 3z m-1840 -38 c9 -3 16 -12 16 -19 0 -8 9 -10 26 -7 20
4 25 1 22 -9 -3 -8 -15 -16 -29 -17 -34 -5 -45 -19 -20 -27 22 -7 29 -25 11
-25 -14 0 -90 39 -90 46 0 13 31 64 39 64 5 0 16 -3 25 -6z m1894 -59 c7 -14
12 -32 12 -39 0 -17 -25 -27 -44 -20 -9 3 -17 -3 -21 -15 -3 -12 -11 -21 -17
-21 -10 0 -8 16 8 54 6 17 4 18 -19 12 -40 -10 -33 10 11 33 49 26 57 26 70
-4z m-1962 -40 c-4 -11 6 -20 34 -31 22 -9 40 -20 40 -25 0 -12 -19 -11 -55 5
-25 11 -32 10 -41 -2 -17 -24 -23 0 -8 36 14 31 42 47 30 17z m1992 -61 c14
-10 22 -24 20 -37 -4 -29 -29 -35 -26 -5 4 29 -32 37 -52 12 -12 -14 -12 -18
3 -29 21 -15 22 -25 3 -25 -42 0 -44 73 -3 90 30 12 30 12 55 -6z m-2018 -39
c0 -8 -4 -15 -10 -15 -18 0 -10 -29 11 -40 26 -14 49 2 42 30 -3 11 -1 20 5
20 9 0 22 -23 22 -40 0 -16 -31 -40 -52 -40 -45 0 -76 58 -46 88 16 16 28 15
28 -3z m2060 -54 c0 -5 -9 -12 -19 -16 -25 -8 -17 -45 9 -38 10 3 21 0 24 -6
6 -10 -52 -31 -86 -31 -24 0 -23 16 2 23 34 9 25 37 -12 37 -40 0 -26 18 24
30 47 11 58 11 58 1z m-2104 -65 c-3 -14 -2 -27 4 -31 5 -3 12 6 16 20 3 14
11 25 16 25 6 0 7 -11 4 -25 -5 -18 -2 -25 9 -25 8 0 15 9 15 19 0 11 5 23 10
26 12 7 13 -44 2 -63 -10 -14 -88 -7 -98 10 -8 13 6 68 18 68 6 0 8 -10 4 -24z
m2134 -90 c0 -16 -89 -31 -103 -17 -10 10 5 15 63 24 14 3 28 5 33 6 4 0 7 -5
7 -13z m-2064 -18 c-3 -13 -6 -29 -6 -35 0 -9 -17 -13 -50 -13 -38 0 -50 4
-50 15 0 12 8 14 40 9 36 -6 40 -4 46 20 3 14 11 26 16 26 6 0 8 -10 4 -22z
m2064 -41 c0 -7 -12 -20 -27 -29 l-28 -17 33 -1 c49 0 38 -17 -15 -22 -63 -6
-75 6 -38 37 l30 24 -27 1 c-16 0 -28 5 -28 10 0 6 23 10 50 10 34 0 50 -4 50
-13z m-2160 -51 c0 -14 5 -28 10 -31 6 -3 10 5 10 19 0 14 5 28 10 31 6 4 10
-7 10 -24 0 -21 5 -31 15 -31 10 0 15 10 15 30 0 17 5 30 10 30 6 0 10 -18 10
-40 l0 -40 -55 0 -55 0 0 40 c0 22 5 40 10 40 6 0 10 -11 10 -24z m2090 -61
c-6 -8 -10 -22 -8 -32 3 -14 8 -11 21 15 20 36 41 41 57 12 11 -21 -2 -60 -20
-60 -13 0 -13 17 0 25 13 8 13 25 0 25 -6 0 -15 -12 -20 -26 -7 -19 -16 -25
-33 -22 -36 5 -37 78 -1 78 13 0 14 -3 4 -15z m-1992 -91 c-3 -27 -6 -29 -50
-32 -29 -2 -48 1 -48 7 0 6 12 11 28 11 35 0 56 14 49 33 -3 8 -3 18 1 21 11
12 24 -12 20 -40z m2058 -16 c-3 -13 -6 -31 -6 -40 0 -10 -4 -18 -10 -18 -5 0
-10 7 -10 15 0 10 -14 17 -40 21 -22 4 -40 12 -40 19 0 9 11 10 41 5 30 -6 42
-4 46 6 9 23 26 16 19 -8z m-2046 -37 c0 -6 -4 -13 -10 -16 -15 -9 -12 -23 10
-42 31 -27 24 -35 -22 -28 -93 14 -97 21 -35 64 45 32 57 37 57 22z m1986 -32
c44 -11 60 -29 27 -29 -34 0 -94 21 -88 31 8 11 7 11 61 -2z m-17 -64 c15 -5
26 -2 32 6 4 7 11 10 14 7 10 -10 -15 -79 -25 -73 -5 3 -7 12 -4 19 4 10 -7
16 -35 21 -26 4 -41 12 -41 22 0 9 7 13 18 9 9 -2 28 -8 41 -11z m-1939 -13
c0 -5 -7 -17 -15 -28 -21 -28 -18 -37 11 -30 42 11 24 -15 -21 -31 -49 -17
-61 -12 -68 24 -6 33 10 56 34 50 10 -3 23 1 30 9 13 15 29 19 29 6z m1938
-63 c12 -5 22 -14 22 -20 0 -7 -8 -9 -22 -4 -63 20 -92 1 -39 -26 32 -17 39
-37 11 -30 -30 6 -70 32 -70 44 0 7 7 23 16 35 16 23 22 23 82 1z m-1893 -59
c4 -6 -10 -17 -29 -25 -24 -10 -36 -22 -36 -35 0 -33 -16 -23 -33 20 -15 39
-12 51 9 30 7 -7 21 -6 45 4 19 9 35 15 36 16 1 0 5 -5 8 -10z m1807 -56 c22
-11 33 -13 41 -5 24 24 26 9 5 -31 -20 -38 -23 -40 -26 -20 -2 14 -16 29 -38
39 -33 16 -45 33 -24 33 6 0 25 -7 42 -16z m-1772 -4 c0 -6 -7 -25 -16 -41
-15 -29 -15 -30 5 -20 23 13 41 14 41 3 0 -10 -91 -55 -98 -47 -3 2 1 17 9 32
7 16 15 32 17 36 3 5 -5 4 -16 -2 -26 -14 -45 -14 -37 -1 6 10 74 49 88 50 4
0 7 -5 7 -10z m1747 -58 l42 -28 -21 -32 c-11 -18 -24 -29 -29 -26 -5 3 -2 16
7 30 19 29 -1 35 -22 7 -7 -10 -16 -15 -20 -11 -4 4 -1 14 5 22 7 8 9 20 5 27
-5 8 -12 4 -25 -12 -10 -13 -20 -21 -24 -18 -6 6 26 69 35 69 3 0 24 -13 47
-28z m-1683 -47 c22 -33 21 -36 -26 -68 -43 -30 -43 -30 -69 16 -16 27 -1 34
17 9 21 -30 38 -17 18 14 -19 28 -9 32 18 7 23 -20 36 -9 20 17 -24 39 -3 43
22 5z m1590 -26 c-4 -6 -11 -6 -20 2 -21 17 -17 31 6 19 11 -6 18 -15 14 -21z
m-1526 -51 c20 -20 13 -55 -14 -77 -15 -12 -31 -21 -35 -21 -15 0 -50 41 -46
53 6 20 27 19 27 -2 0 -25 31 -29 50 -6 15 18 6 45 -15 45 -8 0 -15 5 -15 10
0 14 33 13 48 -2z m1541 -56 c8 -4 -42 -52 -55 -52 -6 0 -17 7 -24 15 -10 12
-9 20 3 39 14 21 14 26 2 36 -8 7 -12 17 -9 22 4 5 23 -5 43 -24 19 -18 38
-34 40 -36z m-78 -85 c-10 -10 -82 63 -74 76 3 5 23 -8 44 -29 23 -22 35 -42
30 -47z m-1422 47 c3 -16 1 -17 -13 -5 -19 16 -21 34 -3 29 6 -3 14 -13 16
-24z m51 -31 c0 -36 0 -36 20 -18 29 26 36 11 12 -23 -38 -52 -47 -55 -78 -29
-31 27 -28 52 7 65 11 5 20 11 20 15 -3 26 0 37 9 32 6 -3 10 -22 10 -42z
m1340 -45 c0 -17 -20 -6 -44 23 -25 30 -26 30 -51 12 -25 -18 -27 -42 -9 -105
8 -27 -22 -22 -67 10 -45 32 -49 44 -13 40 18 -2 30 3 38 17 6 11 27 35 46 53
l35 34 32 -39 c18 -21 33 -41 33 -45z m-1281 -33 c-18 -25 -36 -42 -41 -39 -9
6 -5 15 29 62 13 18 29 30 34 27 5 -4 -5 -26 -22 -50z m89 9 c25 -17 29 -44 7
-44 -8 0 -15 7 -15 15 0 8 -7 15 -15 15 -8 0 -15 -4 -15 -9 0 -5 7 -14 15 -21
34 -28 5 -71 -35 -50 -22 12 -33 37 -19 45 5 4 12 -1 15 -9 3 -9 13 -16 22
-16 13 0 13 2 0 18 -26 30 -29 40 -12 56 19 20 24 20 52 0z m992 -54 c27 -53
18 -66 -27 -39 l-35 22 16 -32 c13 -24 14 -31 3 -31 -7 0 -23 20 -35 45 -20
41 -20 45 -4 45 10 0 28 -8 42 -17 26 -18 25 -21 4 32 -14 34 17 12 36 -25z
m-909 10 c38 -21 13 -100 -32 -100 -19 0 -49 25 -49 41 0 15 22 10 35 -8 11
-15 15 -15 29 -3 25 20 17 56 -12 53 -21 -3 -29 7 -15 20 9 10 21 9 44 -3z
m809 -56 c23 -53 23 -54 10 -54 -12 0 -50 81 -43 93 8 14 14 7 33 -39z m-99
-30 c9 -11 10 -20 2 -32 -15 -24 -44 -27 -59 -7 -28 38 27 75 57 39z m-577
-10 c20 -19 5 -54 -23 -54 -29 0 -45 25 -31 49 13 25 33 27 54 5z"/>
<path d="M1720 2740 c0 -5 9 -10 20 -10 11 0 20 5 20 10 0 6 -9 10 -20 10 -11
0 -20 -4 -20 -10z"/>
<path d="M2122 2568 c3 -7 13 -15 24 -17 16 -3 17 -1 5 13 -16 19 -34 21 -29
4z"/>
<path d="M1470 2464 c0 -8 5 -12 10 -9 6 3 10 10 10 16 0 5 -4 9 -10 9 -5 0
-10 -7 -10 -16z"/>
<path d="M1473 2395 c0 -27 2 -38 4 -22 2 15 2 37 0 50 -2 12 -4 0 -4 -28z"/>
<path d="M1469 2335 c-1 -3 -2 -9 -3 -14 -2 -15 -16 -26 -16 -13 0 7 -4 12
-10 12 -5 0 -9 -5 -7 -12 1 -6 -7 -13 -18 -15 -17 -4 -18 -2 -5 7 13 10 12 11
-3 6 -10 -3 -21 -6 -23 -6 -3 0 -2 -5 2 -11 4 -8 0 -9 -15 -4 -14 4 -21 3 -19
-5 2 -7 -3 -15 -11 -18 -8 -3 -11 0 -7 7 4 6 2 11 -3 11 -14 0 -14 -4 6 -82
12 -47 23 -68 35 -71 17 -5 18 -32 18 -490 l0 -486 47 -7 c47 -7 217 1 234 12
5 3 9 215 9 505 0 441 2 499 15 499 18 0 23 10 39 87 l12 59 -24 -4 c-14 -3
-28 1 -34 9 -6 9 -11 10 -14 3 -3 -6 -16 -9 -32 -6 l-27 6 25 7 c23 6 22 7 -8
8 -20 1 -31 -3 -27 -9 3 -5 -3 -10 -14 -10 -24 0 -36 16 -19 23 7 3 3 6 -10 6
-13 1 -20 -3 -17 -9 3 -5 -3 -10 -14 -10 -12 0 -21 5 -21 10 0 10 -39 15 -41
5z m0 -128 c-2 -2 -17 -7 -34 -10 l-30 -6 28 13 c15 6 26 15 24 18 -2 3 1 2 6
-3 6 -5 9 -10 6 -12z m71 -547 l0 -510 -40 0 -40 0 0 46 c0 37 5 51 30 76 17
16 30 32 30 36 0 3 -13 -7 -30 -23 l-30 -29 0 39 c0 30 7 47 33 74 19 21 22
27 6 13 -14 -12 -28 -22 -31 -22 -4 0 -7 43 -7 95 0 93 1 95 31 120 17 14 28
28 26 30 -3 3 -13 -4 -23 -15 -27 -29 -35 -25 -35 19 0 31 6 44 30 64 17 14
30 29 30 33 0 4 -13 -5 -30 -21 l-30 -29 0 46 c0 39 5 50 31 73 17 14 29 28
27 30 -3 3 -13 -4 -23 -15 -10 -11 -22 -20 -26 -20 -4 0 -8 43 -8 95 0 92 1
95 30 119 16 14 29 31 29 38 0 7 -10 1 -21 -14 -11 -16 -25 -28 -30 -28 -15 0
-10 22 8 42 14 15 14 19 3 16 -11 -2 -16 8 -18 34 -3 29 1 38 18 43 12 4 17
11 13 18 -4 7 1 6 10 -2 15 -12 17 -11 17 13 0 14 5 26 10 26 7 0 10 -177 10
-510z"/>
<path d="M1494 1888 l-19 -23 23 19 c21 18 27 26 19 26 -2 0 -12 -10 -23 -22z"/>
<path d="M1494 1478 l-19 -23 23 19 c21 18 27 26 19 26 -2 0 -12 -10 -23 -22z"/>
<path d="M1708 2313 c7 -3 16 -2 19 1 4 3 -2 6 -13 5 -11 0 -14 -3 -6 -6z"/>
<path d="M1210 1900 c0 -19 -7 -20 -165 -20 -139 0 -167 -2 -171 -15 -4 -8 -1
-22 6 -30 10 -12 43 -15 171 -15 152 0 159 -1 159 -20 0 -18 7 -20 70 -20 l70
0 0 70 0 70 -70 0 c-63 0 -70 -2 -70 -20z"/>
<path d="M1720 1850 l0 -70 66 0 c57 0 67 3 71 20 5 19 14 20 163 20 164 0
189 6 174 44 -5 14 -28 16 -170 16 -157 0 -164 1 -164 20 0 18 -7 20 -70 20
l-70 0 0 -70z"/>
<path d="M1210 1710 c0 -19 -8 -20 -167 -22 -160 -3 -168 -4 -168 -23 0 -19 8
-20 164 -23 153 -2 163 -4 168 -22 5 -18 14 -20 74 -20 l69 0 0 65 0 65 -70 0
c-63 0 -70 -2 -70 -20z"/>
<path d="M1720 1665 l0 -65 70 0 c63 0 70 2 70 20 0 19 7 20 164 20 166 0 181
3 169 38 -4 9 -46 12 -169 12 -157 0 -164 1 -164 20 0 18 -7 20 -70 20 l-70 0
0 -65z"/>
<path d="M1210 1530 c0 -19 -7 -20 -159 -20 -128 0 -161 -3 -171 -15 -7 -8
-10 -22 -6 -30 4 -13 32 -15 171 -15 158 0 165 -1 165 -20 0 -18 7 -20 70 -20
l70 0 0 70 0 70 -70 0 c-63 0 -70 -2 -70 -20z"/>
<path d="M1720 1480 l0 -70 70 0 c63 0 70 2 70 20 0 19 7 20 164 20 142 0 165
2 170 16 15 38 -10 44 -174 44 -149 0 -158 1 -163 20 -4 17 -14 20 -71 20
l-66 0 0 -70z"/>
<path d="M644 2305 c-8 -21 15 -47 39 -43 27 4 32 22 12 42 -21 20 -44 21 -51
1z"/>
<path d="M2407 2253 c-4 -3 -7 -11 -7 -17 0 -6 5 -5 12 2 6 6 9 14 7 17 -3 3
-9 2 -12 -2z"/>
<path d="M584 2206 c-8 -22 3 -33 18 -18 9 9 9 15 0 24 -9 9 -13 7 -18 -6z"/>
<path d="M2472 2156 c1 -10 8 -17 13 -17 15 1 12 24 -3 29 -9 3 -13 -2 -10
-12z"/>
<path d="M505 1460 c-3 -5 1 -10 9 -10 9 0 16 5 16 10 0 6 -4 10 -9 10 -6 0
-13 -4 -16 -10z"/>
<path d="M517 1364 c-8 -8 3 -34 14 -34 11 0 12 27 0 34 -4 3 -11 3 -14 0z"/>
<path d="M2284 976 c-8 -22 3 -33 18 -18 9 9 9 15 0 24 -9 9 -13 7 -18 -6z"/>
<path d="M852 873 c2 -9 9 -18 16 -21 18 -6 15 25 -4 32 -11 4 -14 1 -12 -11z"/>
<path d="M2085 820 c3 -5 8 -10 11 -10 2 0 4 5 4 10 0 6 -5 10 -11 10 -5 0 -7
-4 -4 -10z"/>
<path d="M526 844 c-3 -26 -6 -60 -6 -75 0 -33 -1 -34 -98 -15 -40 8 -72 10
-70 5 5 -14 189 -209 197 -209 5 0 16 30 26 68 10 37 22 72 27 79 7 8 30 10
76 6 l66 -6 -64 60 c-36 33 -84 76 -106 96 l-41 37 -7 -46z"/>
<path d="M2480 822 c-31 -26 -74 -62 -95 -81 l-40 -33 54 6 c30 4 59 8 65 9 9
2 41 -77 60 -147 4 -16 23 -2 110 79 59 53 106 101 106 105 0 4 -36 -1 -79
-10 -43 -10 -83 -15 -89 -11 -6 3 -11 29 -13 56 -3 55 -8 75 -18 75 -3 -1 -31
-22 -61 -48z"/>
<path d="M2352 683 c-19 -4 -21 -7 -11 -19 15 -19 29 -17 59 6 l25 20 -25 -2
c-14 0 -35 -3 -48 -5z"/>
<path d="M2395 638 c-171 -139 -413 -245 -655 -284 -138 -23 -379 -14 -520 19
-206 49 -402 143 -562 270 -21 17 -40 28 -42 26 -4 -5 -86 -291 -86 -302 0
-14 184 -129 278 -174 397 -191 844 -219 1267 -82 190 62 492 230 481 267 -3
9 -24 80 -46 157 -23 77 -44 143 -48 146 -4 4 -34 -16 -67 -43z m17 -204 c33
-45 36 -53 22 -65 -17 -14 -16 -16 -77 72 -50 70 -55 84 -34 92 12 5 24 -8 89
-99z m-1622 69 c14 -9 28 -22 32 -27 8 -12 11 -66 4 -66 -18 0 -36 15 -36 30
0 25 -26 43 -52 37 -24 -6 -58 -54 -58 -80 0 -24 40 -48 61 -37 24 13 26 13
33 -7 8 -21 -10 -33 -51 -33 -35 0 -83 47 -83 81 0 49 61 119 104 119 12 0 33
-8 46 -17z m1492 -68 c8 -18 8 -31 0 -49 -9 -21 -8 -25 11 -30 12 -3 33 -15
47 -25 l25 -19 -27 -7 c-17 -4 -39 0 -65 13 -52 27 -71 16 -49 -27 17 -32 14
-51 -7 -51 -14 0 -102 158 -93 167 23 23 86 52 114 53 25 0 35 -6 44 -25z
m-1285 -47 c23 -21 30 -52 15 -62 -10 -6 -24 4 -38 29 -12 22 -54 33 -54 15 0
-6 16 -26 35 -44 38 -37 43 -60 19 -94 -18 -26 -53 -28 -93 -7 -31 15 -41 33
-41 70 0 18 4 22 20 18 11 -3 20 -13 20 -22 0 -22 19 -41 41 -41 34 0 32 23
-5 57 -40 38 -45 66 -19 96 22 23 66 17 100 -15z m1083 -22 c0 -8 -20 -19 -45
-26 -51 -14 -57 -20 -45 -40 7 -11 16 -12 49 -1 70 21 87 -9 19 -32 -36 -12
-43 -18 -40 -37 1 -13 4 -25 5 -26 2 -2 24 5 50 14 42 15 49 15 57 2 7 -11 -4
-19 -52 -37 -33 -13 -66 -23 -72 -23 -18 0 -79 180 -63 185 68 26 123 42 130
38 4 -2 7 -10 7 -17z m-948 -22 c4 -3 -7 -46 -24 -95 -27 -82 -46 -106 -62
-80 -5 7 19 87 49 169 5 12 27 16 37 6z m170 -43 c36 -13 47 -54 23 -81 -10
-11 -24 -20 -31 -20 -10 0 -8 -12 8 -45 12 -24 19 -47 16 -51 -14 -14 -44 9
-63 49 -22 45 -55 63 -55 29 0 -34 -11 -52 -32 -52 -16 0 -19 5 -14 22 3 13
11 56 18 97 l12 73 46 -5 c25 -3 57 -10 72 -16z m578 5 c0 -8 -14 -17 -32 -21
-62 -12 -66 -15 -61 -36 4 -12 12 -18 22 -15 65 18 81 18 81 -2 0 -16 -9 -21
-45 -26 -40 -6 -45 -10 -45 -33 0 -27 3 -27 104 -10 6 1 11 -5 13 -14 3 -14
-10 -19 -67 -30 -38 -7 -72 -10 -75 -7 -5 5 -35 155 -35 175 0 12 63 30 113
32 17 1 27 -4 27 -13z m-216 -37 c14 -11 26 -24 26 -29 0 -16 -33 -20 -50 -5
-53 48 -108 -30 -64 -93 19 -28 48 -28 68 -1 9 13 21 19 30 16 21 -8 20 -20
-3 -48 -25 -32 -92 -33 -122 -2 -29 29 -37 104 -15 138 31 47 88 57 130 24z
m-194 -110 c0 -17 -5 -20 -37 -17 -27 2 -39 8 -41 21 -3 14 4 17 37 17 35 0
41 -3 41 -21z"/>
<path d="M2184 406 c-18 -14 -18 -16 -2 -32 16 -16 18 -16 42 0 14 9 26 23 26
31 0 19 -40 20 -66 1z"/>
<path d="M1217 261 c-5 -21 10 -31 49 -31 17 0 24 6 24 19 0 34 -64 44 -73 12z"/>
<path d="M685 655 c36 -30 41 -30 54 -6 9 15 7 20 -12 25 -12 3 -33 6 -47 6
l-25 -1 30 -24z"/>
<path d="M1222 508 c3 -7 13 -15 22 -16 12 -3 17 1 14 10 -3 7 -13 15 -22 16
-12 3 -17 -1 -14 -10z"/>
<path d="M1010 486 c0 -20 8 -27 45 -39 39 -14 45 -14 45 -1 0 8 -8 14 -19 14
-10 0 -26 11 -35 25 -21 32 -36 32 -36 1z"/>
<path d="M1121 469 c-11 -31 -8 -49 8 -49 5 0 13 18 19 40 12 50 -10 57 -27 9z"/>
<path d="M1166 466 c-3 -13 -9 -31 -12 -40 -4 -10 -1 -16 9 -16 9 0 18 8 21
18 2 9 7 27 11 40 4 16 2 22 -8 22 -8 0 -18 -11 -21 -24z"/>
</g>
</svg>
