<?xml version="1.0" standalone="no"?>
<!DOCTYPE svg PUBLIC "-//W3C//DTD SVG 20010904//EN"
 "http://www.w3.org/TR/2001/REC-SVG-20010904/DTD/svg10.dtd">
<svg version="1.0" xmlns="http://www.w3.org/2000/svg"
 width="200.000000pt" height="200.000000pt" viewBox="0 0 200.000000 200.000000"
 preserveAspectRatio="xMidYMid meet">
<metadata>
Created by potrace 1.16, written by Peter Selinger 2001-2019
</metadata>
<g transform="translate(0.000000,200.000000) scale(0.100000,-0.100000)"
fill="#000000" stroke="none">
<path d="M647 1693 c-22 -21 6 -75 36 -70 9 2 257 -212 257 -222 0 -3 -14 -12
-30 -19 -29 -13 -32 -12 -95 43 -36 32 -65 65 -65 74 0 37 -46 55 -70 26 -18
-21 -3 -55 25 -55 22 0 155 -103 155 -120 0 -4 -8 -17 -17 -29 -18 -22 -18
-21 -200 134 -101 86 -183 162 -183 170 0 21 -31 35 -52 24 -34 -18 -10 -79
26 -66 10 4 82 -50 198 -150 172 -147 183 -158 180 -187 -2 -17 -5 -33 -7 -34
-8 -8 -175 144 -175 159 0 27 -25 42 -49 29 -37 -19 -20 -70 22 -70 30 0 202
-149 216 -188 24 -65 106 -132 160 -132 25 0 211 -158 211 -180 0 -21 20 -40
42 -40 21 0 40 32 32 54 -6 15 -11 18 -44 20 -9 1 -52 33 -98 71 l-82 70 30
13 c25 10 34 10 49 0 48 -35 240 -202 236 -206 -2 -3 0 -13 6 -24 7 -13 19
-18 37 -16 23 2 27 8 27 33 0 26 -4 30 -29 33 -29 4 -59 26 -204 151 -59 51
-62 55 -46 72 10 11 21 19 25 19 18 0 149 -123 149 -141 0 -25 37 -44 56 -28
32 26 12 69 -33 69 -8 0 -47 28 -85 61 -64 58 -68 64 -62 93 3 17 8 33 10 35
7 8 296 -254 305 -276 13 -34 62 -29 67 6 4 26 -12 41 -44 41 -12 0 -83 53
-171 129 -132 114 -151 133 -156 166 -11 65 -51 120 -109 149 -28 14 -69 26
-89 26 -34 0 -51 12 -169 116 -72 64 -130 123 -130 133 0 31 -43 55 -63 34z
m444 -328 c15 -8 38 -28 53 -45 73 -88 44 -220 -59 -270 -126 -61 -271 43
-252 182 16 119 150 188 258 133z"/>
<path d="M974 1290 c-57 -23 -71 -100 -28 -144 37 -37 86 -35 125 3 44 44 35
107 -20 136 -33 17 -46 18 -77 5z"/>
<path d="M1036 1681 c-3 -5 -32 -12 -63 -15 -69 -8 -153 -34 -153 -47 0 -12 6
-11 64 6 58 18 156 20 156 4 0 -8 15 -9 46 -4 40 6 55 2 113 -26 37 -18 88
-55 116 -83 56 -57 111 -151 95 -161 -17 -11 -11 -44 11 -56 20 -10 21 -17 17
-120 -2 -60 -1 -109 3 -109 13 0 22 54 24 145 2 50 6 98 10 107 4 11 -1 23
-15 35 -12 10 -33 40 -47 67 -36 72 -129 160 -205 196 -35 17 -71 30 -80 30
-10 0 -22 9 -28 20 -11 20 -54 28 -64 11z"/>
<path d="M1022 1502 c-10 -7 -3 -11 24 -17 58 -10 126 -49 167 -94 39 -44 67
-91 67 -116 0 -8 5 -15 10 -15 20 0 10 77 -17 131 -36 71 -99 111 -181 116
-31 2 -63 0 -70 -5z"/>
<path d="M554 1274 c-4 -20 -3 -69 1 -108 4 -39 7 -87 7 -106 -1 -25 5 -41 22
-55 12 -11 37 -41 54 -67 35 -51 97 -106 152 -133 19 -10 44 -29 56 -43 16
-19 25 -23 40 -17 10 5 57 8 104 7 93 -1 171 15 178 37 3 10 0 12 -14 7 -86
-34 -226 -31 -251 4 -12 17 -21 20 -44 15 -68 -15 -244 144 -232 209 4 19 -1
33 -20 50 -28 26 -44 116 -32 185 8 50 -11 65 -21 15z"/>
<path d="M726 1151 c-15 -23 5 -100 37 -148 41 -60 102 -93 171 -92 56 0 114
17 65 18 -92 3 -220 100 -251 191 -9 29 -17 40 -22 31z"/>
<path d="M383 553 c-22 -4 -23 -9 -23 -99 l0 -94 44 0 c55 0 93 28 102 76 14
77 -43 131 -123 117z"/>
<path d="M1033 553 c-9 -3 -13 -33 -13 -99 l0 -94 48 0 c35 0 54 5 65 18 21
23 22 56 1 77 -13 12 -13 19 -4 30 33 40 -40 92 -97 68z"/>
<path d="M850 400 c0 -93 1 -100 20 -100 15 0 20 7 20 28 0 25 4 29 30 29 42
0 63 23 63 72 0 58 -15 71 -79 71 l-54 0 0 -100z"/>
</g>
</svg>
